<svg version="1.2" xmlns="http://www.w3.org/2000/svg" viewBox="0 0 718 597" width="718" height="597">
	<title>undraw_mobile_development_re_wwsn-svg</title>
	<style>
		.s0 { fill: #3f3d56 } 
		.s1 { fill: #2bd6f4 } 
		.s2 { fill: #ffffff } 
		.s3 { fill: #f2f2f2 } 
		.s4 { fill: #e6e6e6 } 
		.s5 { fill: #6c63ff } 
		.s6 { fill: #ffb6b6 } 
		.s7 { fill: #2f2e41 } 
		.s8 { fill: #cccccc } 
	</style>
	<rect id="Layer" class="s0" x="204.9" width="326" height="594" rx="58.7"></rect>
	<path id="Layer" class="s1" d="m525.4 58.7v476.6c-0.1 7-1.4 13.9-4.1 20.3-2.7 6.5-6.6 12.4-11.6 17.3-4.9 4.9-10.8 8.9-17.2 11.5-6.5 2.7-13.4 4.1-20.4 4.1h-208.5c-7 0-13.9-1.4-20.4-4.1-6.4-2.6-12.3-6.6-17.2-11.5-5-4.9-8.9-10.8-11.6-17.3-2.7-6.4-4-13.3-4-20.3v-476.6c0-7 1.3-13.9 4-20.3 2.7-6.5 6.6-12.3 11.6-17.3 4.9-4.9 10.8-8.9 17.2-11.5 6.5-2.7 13.4-4.1 20.4-4.1h27.3v9.4c0 2.1 0.4 4.2 1.2 6.2 0.8 1.9 2 3.7 3.5 5.2 1.5 1.5 3.2 2.7 5.2 3.5 1.9 0.8 4 1.2 6.1 1.2h121.9c2.1 0 4.2-0.4 6.1-1.2 2-0.8 3.8-2 5.2-3.5 1.5-1.5 2.7-3.3 3.5-5.2 0.8-2 1.3-4.1 1.3-6.2v-9.4h27.2c7 0 13.9 1.4 20.4 4.1 6.4 2.6 12.3 6.6 17.2 11.5 5 5 8.9 10.8 11.6 17.3 2.7 6.4 4 13.3 4.1 20.3z"/>
	<path id="Layer" class="s0" d="m203.4 120.5q-0.8 0-1.6-0.3-0.7-0.3-1.3-0.9-0.5-0.5-0.8-1.3-0.3-0.7-0.3-1.5v-8c0-1.1 0.4-2.1 1.1-2.8 0.8-0.8 1.8-1.2 2.9-1.2 1 0 2 0.4 2.8 1.2 0.7 0.7 1.2 1.7 1.2 2.8v8q0 0.8-0.4 1.5-0.3 0.8-0.8 1.3-0.6 0.6-1.3 0.9-0.8 0.3-1.5 0.3z"/>
	<path id="Layer" class="s0" d="m203.4 161.5q-0.8 0-1.6-0.3-0.7-0.3-1.3-0.9-0.5-0.5-0.8-1.2-0.3-0.8-0.3-1.6v-22c0-1.1 0.4-2.1 1.1-2.8 0.8-0.8 1.8-1.2 2.9-1.2 1 0 2 0.4 2.8 1.2 0.7 0.7 1.2 1.7 1.2 2.8v22q0 0.8-0.4 1.6-0.3 0.7-0.8 1.2-0.6 0.6-1.3 0.9-0.8 0.3-1.5 0.3z"/>
	<path id="Layer" class="s0" d="m203.4 194.5q-0.8 0-1.6-0.3-0.7-0.3-1.3-0.9-0.5-0.5-0.8-1.3-0.3-0.7-0.3-1.5v-22c0-1.1 0.4-2.1 1.1-2.8 0.8-0.8 1.8-1.2 2.9-1.2 1 0 2 0.4 2.8 1.2 0.7 0.7 1.2 1.7 1.2 2.8v22q0 0.8-0.4 1.5-0.3 0.8-0.8 1.3-0.6 0.6-1.3 0.9-0.8 0.3-1.5 0.3z"/>
	<path id="Layer" class="s0" d="m531.4 176.5q-0.8 0-1.6-0.3-0.7-0.3-1.3-0.9-0.5-0.5-0.8-1.3-0.3-0.7-0.3-1.5v-53.7c0-1.1 0.4-2.1 1.1-2.9 0.8-0.7 1.8-1.1 2.9-1.1 1 0 2 0.4 2.8 1.1 0.7 0.8 1.2 1.8 1.2 2.9v53.7q0 0.8-0.4 1.5-0.3 0.8-0.8 1.3-0.6 0.6-1.3 0.9-0.8 0.3-1.5 0.3z"/>
	<path id="Layer" class="s2" d="m376.4 18.3h-31c-0.6 0-1.3-0.2-1.7-0.7-0.5-0.5-0.8-1.1-0.8-1.8 0-0.6 0.3-1.3 0.8-1.7 0.4-0.5 1.1-0.8 1.7-0.8h31c0.7 0 1.3 0.3 1.8 0.8 0.5 0.4 0.7 1.1 0.7 1.7 0 0.7-0.2 1.3-0.7 1.8-0.5 0.5-1.1 0.7-1.8 0.7z"/>
	<circle id="Layer" class="s2" cx="392.4" cy="15.8" r="2"/>
	<path id="Layer" class="s3" d="m632.8 569c0.7 0 1.4-0.2 2-0.6 0.6-0.3 1.1-0.9 1.4-1.6 0.3-0.7 0.3-1.4 0.2-2.1-0.2-0.7-0.6-1.4-1.1-1.9-0.1-0.3-0.2-0.6-0.3-1 0.7-1.7 1.9-3.3 3.5-4.4 1.5-1.1 3.4-1.7 5.3-1.7 1.9 0 3.8 0.5 5.4 1.5 1.6 1.1 2.8 2.6 3.6 4.3 4.3 9.9 9.9 20 7.2 31 17.6-38.3 11.1-85.6-15.8-117.8-7.3-4-13.4-11.1-15-19.5 3.7 1.2 8.2-1.8 5.4-5.6q-1.8-2.1-3.6-4.3c13.6-14.8 30.3 8.1 15.3 28.1q1.9 2.3 3.6 4.7 1.8 2.4 3.4 4.9 1.7 2.5 3.2 5.1 1.5 2.6 2.8 5.2-0.3-2.8-0.3-5.6 0-2.9 0.3-5.7 0.4-2.8 1-5.6 0.7-2.8 1.7-5.4c2.7-6.7 7.7-12.3 12.2-18.1 5.5-7 16.8-3.9 17.7 5-5.1 1.7-5.7 9 0.1 10-1.3 16.5-12 31.7-26.7 39.1q2.1 5.7 3.6 11.6 1.5 5.9 2.3 12 0.9 6 1.1 12.1 0.2 6.1-0.3 12.2c2.5-19.1 22.8-23.9 37-31.5 0.9-0.6 1.9-0.9 3-0.9 1.1 0 2.1 0.3 3 0.9 0.9 0.5 1.7 1.4 2.1 2.4 0.4 1 0.6 2 0.4 3.1q-0.7 0.3-1.5 0.7-0.7 0.3-1.4 0.7-0.7 0.4-1.4 0.8-0.6 0.4-1.3 0.8c-0.8 0.6-1.5 1.4-1.8 2.3-0.4 1-0.4 2-0.1 3 0.2 0.9 0.8 1.8 1.5 2.4 0.8 0.7 1.7 1.1 2.7 1.1-7 17.9-25.4 30-44.5 30.1q-0.7 3-1.5 5.9-0.8 3-1.7 5.9-1 2.9-2.1 5.8-1.1 2.8-2.4 5.6l-28.3 0.3q-0.2-0.5-0.3-1 1 0.1 2 0.1 1 0 1.9-0.1 1-0.1 2-0.2 1-0.1 1.9-0.3c-7-8.2-12.4-12.3-8.4-23.8z"/>
	<path id="Layer" class="s3" d="m76.5 592.8q1 0.2 2 0.3 0.9 0.1 1.9 0.2 1 0.1 2 0.1 1 0 1.9-0.1-0.1 0.5-0.3 1l-28.3-0.3q-1.2-2.8-2.3-5.6-1.1-2.9-2.1-5.8-1-2.9-1.8-5.9-0.8-2.9-1.5-5.9c-19-0.1-37.5-12.2-44.5-30.1 1 0 2-0.4 2.7-1.1 0.8-0.6 1.3-1.5 1.6-2.4 0.3-1 0.2-2-0.1-3-0.4-0.9-1-1.7-1.8-2.3q-0.7-0.4-1.4-0.8-0.7-0.4-1.4-0.8-0.7-0.4-1.4-0.7-0.7-0.4-1.4-0.7c-0.2-1.1-0.1-2.1 0.4-3.1 0.4-1 1.1-1.9 2-2.4 0.9-0.6 2-0.9 3-0.9 1.1 0 2.2 0.3 3.1 0.9 14.2 7.6 34.5 12.4 36.9 31.5q-0.4-6.1-0.2-12.2 0.2-6.1 1-12.1 0.9-6.1 2.4-12 1.4-5.9 3.5-11.6c-14.7-7.4-25.3-22.6-26.7-39.1 5.8-1 5.3-8.3 0.2-10 0.8-8.9 12.2-12 17.6-5 4.5 5.8 9.6 11.4 12.3 18.1q1 2.6 1.6 5.4 0.7 2.8 1 5.6 0.4 2.8 0.4 5.7 0 2.8-0.4 5.6 1.4-2.6 2.9-5.2 1.5-2.6 3.1-5.1 1.7-2.5 3.4-4.9 1.8-2.4 3.7-4.7c-15-20 1.6-42.9 15.3-28.1q-1.8 2.2-3.6 4.3c-2.8 3.8 1.7 6.8 5.3 5.6-1.6 8.4-7.6 15.5-15 19.5-26.8 32.2-33.4 79.5-15.8 117.8-2.6-11 3-21.1 7.3-31 0.7-1.7 2-3.2 3.6-4.3 1.6-1 3.5-1.5 5.4-1.5 1.9 0 3.7 0.6 5.3 1.7 1.5 1.1 2.7 2.7 3.4 4.4-0.1 0.4-0.1 0.7-0.2 1-0.6 0.5-0.9 1.2-1.1 1.9-0.2 0.7-0.1 1.4 0.2 2.1 0.2 0.7 0.7 1.3 1.3 1.6 0.6 0.4 1.4 0.6 2.1 0.6 3.9 11.5-1.5 15.6-8.5 23.8z"/>
	<path id="Layer" class="s4" d="m278.9 29.1h-27c-1.3 0-2.6-0.6-3.5-1.5-0.9-0.9-1.5-2.2-1.5-3.5 0-1.4 0.6-2.6 1.5-3.6 0.9-0.9 2.2-1.4 3.5-1.4h27c1.4 0 2.6 0.5 3.6 1.4 0.9 1 1.4 2.2 1.4 3.6 0 1.3-0.5 2.6-1.4 3.5-1 0.9-2.2 1.5-3.6 1.5z"/>
	<circle id="Layer" class="s4" cx="455.9" cy="24.1" r="4.5"/>
	<circle id="Layer" class="s4" cx="469.9" cy="24.1" r="4.5"/>
	<circle id="Layer" class="s4" cx="483.9" cy="24.1" r="4.5"/>
	<path id="Layer" class="s3" d="m457.5 99.9c1.5 0.6 2.9 1.5 4.1 2.7 1.1 1.1 2 2.5 2.6 4 0.7 1.5 1 3.1 1 4.8v110.3c0 1.6-0.3 3.2-1 4.7-0.6 1.5-1.5 2.9-2.6 4-1.2 1.2-2.6 2.1-4.1 2.7-1.5 0.6-3.1 1-4.7 1h-169.7c-1.6 0-3.2-0.4-4.7-1-1.6-0.6-2.9-1.5-4.1-2.7-1.1-1.1-2-2.5-2.7-4-0.6-1.5-0.9-3.1-0.9-4.7v-110.3c0-1.7 0.3-3.3 0.9-4.8 0.7-1.5 1.6-2.9 2.7-4 1.2-1.2 2.5-2.1 4.1-2.7 1.5-0.6 3.1-0.9 4.7-0.9h169.7c1.6 0 3.2 0.3 4.7 0.9z"/>
	<path id="Layer" class="s0" d="m399.7 146q-5.8 10.2-11.8 20.2-6.1 10-12.4 19.8-6.4 9.8-13 19.4-6.6 9.7-13.5 19.1h-26.6q26.1-31.9 52.3-63.7c5-6.2 10.4-12.6 18-15z"/>
	<path id="Layer" class="s5" d="m364.3 141.7q-4.2 4.3-7.9 9c-5.6 6.7-11 13.4-16.4 20q-5.1 6.3-10.2 12.5-0.4-0.3-0.8-0.5-0.4-0.3-0.8-0.6-0.3-0.3-0.7-0.6-0.4-0.3-0.7-0.6c-5.4-4.6-8.7-11.2-9.3-18.3-0.6-7.1 1.7-14.1 6.2-19.6 4.5-5.4 11-8.9 18.1-9.6 7.1-0.7 14.1 1.3 19.7 5.7q0.4 0.3 0.7 0.6 0.4 0.3 0.7 0.7 0.4 0.3 0.7 0.6 0.4 0.4 0.7 0.7z"/>
	<path id="Layer" class="s0" d="m465.2 138.5v4.1l-1.8-0.7-25.3-9.2c-8.3-3.1-16.5-6.5-25-8.7q-2.8-0.8-5.7-1.1-2.8-0.4-5.7-0.4-2.9 0.1-5.7 0.5-2.8 0.5-5.6 1.3-2.4 0.9-4.8 2.1-2.3 1.1-4.5 2.5-2.3 1.4-4.3 3-2.1 1.6-4 3.4-3.4 3.1-6.6 6.4-1 1.1-2 2.2-3.1 3.3-5.9 6.8c-5.5 6.7-10.9 13.4-16.4 20q-5.1 6.3-10.2 12.5-16.8 20.6-33.4 41.3-0.6 0-1.1-0.1-0.6 0-1.1-0.1-0.6-0.1-1.2-0.2-0.5-0.1-1-0.2 16.9-21.1 34-42 0.4-0.5 0.8-1 2-2.5 4.1-5 8.5-10.5 17.1-20.9c4.1-5.1 8.2-10.1 12.7-14.9q0.4-0.5 0.8-1 0.7-0.6 1.3-1.3c9.7-10.1 21.8-18.9 36.3-19.1 8.5-0.2 16.7 2.5 24.7 5.4 8.5 3.1 17 6.2 25.5 9.3z"/>
	<path id="Layer" class="s3" d="m469.2 477.6h-202.7c-1.6 0-3.2-0.3-4.7-0.9-1.5-0.7-2.9-1.6-4-2.7-1.2-1.2-2.1-2.5-2.7-4-0.6-1.5-1-3.2-1-4.8v-27.3c0-1.6 0.4-3.2 1-4.7 0.6-1.5 1.5-2.9 2.7-4.1 1.1-1.1 2.5-2 4-2.6 1.5-0.7 3.1-1 4.7-1h202.7c1.6 0 3.2 0.3 4.7 1 1.5 0.6 2.9 1.5 4 2.6 1.2 1.2 2.1 2.6 2.7 4.1 0.7 1.5 1 3.1 1 4.7v27.3c0 1.6-0.3 3.3-1 4.8-0.6 1.5-1.5 2.8-2.7 4-1.1 1.1-2.5 2-4 2.7-1.5 0.6-3.1 0.9-4.7 0.9z"/>
	<path id="Layer" class="s3" d="m469.2 337.6h-202.7c-1.6 0-3.2-0.3-4.7-0.9-1.5-0.7-2.9-1.6-4-2.7-1.2-1.2-2.1-2.5-2.7-4-0.6-1.5-1-3.2-1-4.8v-27.3c0-1.6 0.4-3.2 1-4.7 0.6-1.5 1.5-2.9 2.7-4.1 1.1-1.1 2.5-2 4-2.6 1.5-0.7 3.1-1 4.7-1h202.7c1.6 0 3.2 0.3 4.7 1 1.5 0.6 2.9 1.5 4 2.6 1.2 1.2 2.1 2.6 2.7 4.1 0.7 1.5 1 3.1 1 4.7v27.3c0 1.6-0.3 3.3-1 4.8-0.6 1.5-1.5 2.8-2.7 4-1.1 1.1-2.5 2-4 2.7-1.5 0.6-3.1 0.9-4.7 0.9z"/>
	<path id="Layer" class="s3" d="m469.2 407.6h-202.7c-1.6 0-3.2-0.3-4.7-0.9-1.5-0.7-2.9-1.6-4-2.7-1.2-1.2-2.1-2.5-2.7-4-0.6-1.5-1-3.2-1-4.8v-27.3c0-1.6 0.4-3.2 1-4.7 0.6-1.5 1.5-2.9 2.7-4.1 1.1-1.1 2.5-2 4-2.6 1.5-0.7 3.1-1 4.7-1h202.7c1.6 0 3.2 0.3 4.7 1 1.5 0.6 2.9 1.5 4 2.6 1.2 1.2 2.1 2.6 2.7 4.1 0.7 1.5 1 3.1 1 4.7v27.3c0 1.6-0.3 3.3-1 4.8-0.6 1.5-1.5 2.8-2.7 4-1.1 1.1-2.5 2-4 2.7-1.5 0.6-3.1 0.9-4.7 0.9z"/>
	<path id="Layer" class="s2" d="m392.5 446.9h-59.7c-0.7 0-1.4-0.3-1.9-0.8-0.5-0.5-0.8-1.2-0.8-1.9 0-0.7 0.3-1.4 0.8-1.9 0.5-0.5 1.2-0.8 1.9-0.8h59.7c0.7 0 1.4 0.3 1.9 0.8 0.5 0.5 0.7 1.2 0.7 1.9 0 0.7-0.2 1.4-0.7 1.9-0.5 0.5-1.2 0.8-1.9 0.8z"/>
	<path id="Layer" class="s2" d="m449.9 461.6h-117.8c-0.7 0-1.4-0.3-1.9-0.8-0.5-0.5-0.8-1.2-0.8-1.9 0-0.7 0.3-1.4 0.8-1.9 0.5-0.5 1.2-0.8 1.9-0.8h117.8c0.7 0 1.4 0.3 1.9 0.8 0.5 0.5 0.8 1.2 0.8 1.9 0 0.7-0.3 1.4-0.8 1.9-0.5 0.5-1.2 0.8-1.9 0.8z"/>
	<circle id="Layer" class="s2" cx="301" cy="451.6" r="17.9"/>
	<path id="Layer" class="s6" d="m297.2 475.8q1.4 0.7 2.3 1.8 1 1.1 1.5 2.5 0.5 1.4 0.4 2.8-0.1 1.5-0.8 2.8-0.5 1.2-1.4 2.1-1 0.9-2.1 1.4-1.2 0.6-2.4 0.7-1.3 0.2-2.6-0.1l-36.7 6.2 4-13.9 27-1.7q0.1-0.1 0.1-0.2 0.1-0.2 0.1-0.3 0.1-0.2 0.1-0.3 0.1-0.2 0.1-0.3 0.7-1.3 1.9-2.3 1.1-1 2.5-1.5 1.5-0.5 3-0.5 1.5 0.1 2.9 0.8 0 0 0.1 0z"/>
	<path id="Layer" class="s5" d="m241.2 409.1q1.7 1.5 2.8 3.4 1.1 1.9 1.6 4.1 0.4 2.2 0.1 4.4l-7.7 58.2c0 0 12.1-1.8 14.7 1 2.6 2.8 4.4 1.6 5-4.7 0.5-6.3 0.9 0.7 4.4 2.9 3.5 2.3 0 0 2.9-1.3 2.8-1.3 14.6 3.1 14.6 3.1l-0.3 15c0 0-7.1 2.6-8.7 3-1.7 0.5-2 0.2-2 1.6 0 1.4-2.8 0-3.4-3.6-0.7-3.6 0 0-6.5 4.8-6.5 4.7-45.2-2.7-45.2-2.7l-1.4-52.4 7.4-29.9c0.4-1.9 1.3-3.6 2.5-5.1 1.2-1.5 2.7-2.7 4.4-3.6 1.7-0.9 3.6-1.4 5.5-1.5 1.9 0 3.8 0.3 5.6 1q2.1 0.9 3.7 2.3z"/>
	<path id="Layer" class="s6" d="m498.2 562.2l-42.6-1.6 0.6-16.3 42.4 6.8-0.4 11.1z"/>
	<path id="Layer" class="s7" d="m490.5 565.5l-0.4-17.7 7.5 0.3 12.2-16.3c0.6-0.8 1.5-1.4 2.4-1.7 1-0.3 2-0.3 3 0.1 0.9 0.3 1.7 0.9 2.3 1.8 0.6 0.8 0.8 1.8 0.8 2.8l-0.8 21-7.6 3.3 7.4 1.7-0.2 7.9z"/>
	<path id="Layer" class="s7" d="m278.4 532.4c0 0 170.3 7 174 8.3 3.7 1.3 3.2 1 8-1.9 4.8-2.8 1.3 0.1 6.4 2.4 5 2.4 13.8 2.3 13.8 2.3l-0.8 21.1-14.3 1.8c-13.6 8.8-71.6 5.5-71.6 5.5l-134.1 15.6z"/>
	<path id="Layer" class="s6" d="m436.6 578.3l-30.2-30 11.6-11.6 26.4 33.8-7.8 7.8z"/>
	<path id="Layer" class="s7" d="m428.7 575.5l11.7-13.2 5.3 5.4 20.1-3.7c1-0.2 2-0.1 2.9 0.4 0.9 0.4 1.6 1.1 2.1 2 0.5 0.9 0.6 1.9 0.5 2.9-0.2 1-0.6 1.9-1.3 2.7l-14.9 14.8-7.8-2.7 4.3 6.3-5.6 5.6z"/>
	<path id="Layer" class="s7" d="m251.9 512l8 15.2 56.7-46.2c0 0-0.3 0 0-1.4 17.2-9.2 31 4.8 31 4.8 0 0 84.9 59.4 86 59.2 1-0.3 2.7 5.4 3.4 9.9 0.7 4.5 1.1 2.5 3.3 6.7 2.2 4.1-3.9 1.3-3.9 1.3l-16.2 4.4c-15.3-8.2-84.8-42.8-84.8-42.8 0 0-33.4 47.4-36 46-2.6-1.3-5.4 1.1-5.1 6.1 0.4 5.1-11.4 8.2-11.4 8.2q-0.9 0.6-1.8 1.1c-31.1 19.1-71.3-3-72.9-39.5l-1.3-31z"/>
	<path id="Layer" class="s5" d="m243.6 418.7l9.9 33.3c0 0-0.6 0 0.1 1 12.3 16.9 4.2 32.4 4.2 32.4 0 0 0 2.1-4 9.1-4 7 1 4 4 9.2 3 5.2 0 2.8-3.4 6.1q-0.7 0.7-1.2 1.6-0.5 0.9-0.8 1.9-0.2 1-0.2 2 0 1.1 0.3 2.1c0 0-42.9 0-50.9-3-8-3-9.8-19.9-2.7-21.6 7.2-1.7-2.1-3.3-6.4-7.2-4.2-3.8 4.3-10.1 4.3-10.1 0 0-3.5-6-3.2-26.1 0.3-20.1 19.8-48 19.8-48l7.3-12.7 24.3 11.4z"/>
	<path id="Layer" class="s7" d="m206.1 346.7q0.5-2.8 1.5-5.3 1.1-2.6 2.7-4.9 1.6-2.2 3.7-4.1c6.2-5.3 17-4.1 25.6-2.2l20.2 12q1.8 1 3.2 2.6 1.4 1.5 2.3 3.3 0.9 1.9 1.2 4 0.4 2 0.1 4.1c1.6 14.4-5.7 26.4-12.9 34.7l-39.9-9.1q-0.1-0.6-0.2-1.2 0-0.6 0-1.2 0-0.6 0.1-1.1 0-0.6 0.2-1.2-0.5 0.4-0.9 0.9-0.3 0.4-0.6 1-0.3 0.5-0.5 1.1-0.2 0.6-0.3 1.2c-4.7-1.4-12.1-7.6-10.4-12.3 1.6-4.4 4.8-11.7 4.6-16.8q-0.2-2.8 0.3-5.5z"/>
	<circle id="Layer" class="s6" cx="241.5" cy="363.5" r="23"/>
	<path id="Layer" class="s7" d="m219.1 341.1c2.2-3 4.9-5.6 8.1-7.5 3.2-2 6.7-3.3 10.4-3.9 3.7-0.5 7.4-0.4 11.1 0.6 14.8 3.7 23.7 18.9 20.3 33.9q-0.2 0.8-0.7 1.6-0.5 0.7-1.2 1.2-0.8 0.4-1.6 0.6-0.9 0.1-1.8-0.1c-8.4 1.5-17.8-0.6-28.3-6.4q-0.2-0.7-0.3-1.5-0.1-0.7-0.1-1.4 0-0.7 0-1.5 0.1-0.7 0.2-1.4-0.5 0.5-0.9 1.1-0.5 0.6-0.8 1.2-0.3 0.7-0.5 1.4-0.1 0.8-0.1 1.5l-19.4-4.4 1.1-4.9c0.8-3.6 2.3-7.1 4.5-10.1z"/>
	<path id="Layer" class="s7" d="m225.9 319c2.6-0.5 5.3-0.4 7.6-2.1l-1.5 3.5q1.5-0.5 3.2-0.6 1.6-0.1 3.2 0 1.6 0.2 3.2 0.6 1.5 0.5 3 1.2 0.4 0.2 0.8 0.5 0.4 0.2 0.8 0.5 0.3 0.3 0.6 0.7 0.3 0.3 0.6 0.7 0.3 0.5 0.5 1 0.1 0.6 0.2 1.1 0 0.6 0 1.1-0.1 0.6-0.3 1.1-0.2 0.4-0.5 0.8-0.3 0.4-0.6 0.8-0.4 0.3-0.8 0.6-0.4 0.2-0.8 0.4-0.4 0.1-0.8 0.2-0.5 0.1-0.9 0.1-0.4 0.1-0.8 0.1-0.4 0-0.9-0.1-7-0.1-14.1-0.3-0.7 0-1.4 0-0.6 0-1.3-0.2-0.7-0.1-1.3-0.3-0.6-0.2-1.2-0.5-0.7-0.4-1.2-1-0.5-0.6-0.8-1.2-0.4-0.7-0.5-1.5-0.1-0.7 0-1.5c0.5-3.2 3.5-5.1 6-5.7z"/>
	<path id="Layer" class="s8" d="m351.3 500.5q0.1 0.7-0.1 1.4-0.2 0.7-0.6 1.2-0.5 0.5-1.2 0.7l-84.8 23.6q-0.4 0.1-0.8 0.1-0.4 0-0.8-0.1-0.4-0.1-0.7-0.3-0.3-0.2-0.6-0.5l-1.1-1.2-4-8.3-1.7-1.9-0.8-0.9q-0.1-0.1-0.2-0.3-0.1-0.1-0.2-0.2 0-0.1-0.1-0.3-0.1-0.1-0.1-0.3-0.2-0.5-0.1-1 0.1-0.6 0.3-1.1 0.3-0.5 0.7-0.8 0.4-0.4 0.9-0.5l25.8-8 39.1-12.1 5.8-1.8 4.1-1.3 4.8-1.5q0.3 0 0.5-0.1 0.3 0 0.6 0 0.3 0.1 0.5 0.1 0.3 0.1 0.5 0.2l11.2 12.4 1.7 0.9q0.1 0.1 0.1 0.1 0.1 0.1 0.2 0.2 0.1 0 0.2 0.1 0 0 0.1 0.1 0 0 0 0.1 0.1 0 0.1 0 0 0 0 0 0.1 0.1 0.1 0.1 0.4 0.5 0.6 1.2z"/>
	<path id="Layer" class="s8" d="m346.3 376.6q0.4 0.1 0.6 0.3 0.3 0.2 0.5 0.5 0.2 0.3 0.2 0.6l3.7 122.9q0 0.2 0 0.4 0 0.1 0 0.3-0.1 0.2-0.2 0.4 0 0.1-0.1 0.3-0.2 0.1-0.3 0.2-0.1 0.1-0.3 0.2-0.2 0.1-0.4 0.2-0.1 0-0.3 0l-1.1 0.1q-0.1 0-0.3 0-0.2-0.1-0.3-0.1-0.1-0.1-0.3-0.1-0.1-0.1-0.2-0.2l-0.7-0.5-0.3-0.2-12.6-17q-0.2-0.1-0.3-0.2-0.1-0.1-0.2-0.3-0.1-0.1-0.1-0.3-0.1-0.1-0.1-0.3l2.9-83-0.8-4.6q0-0.2 0-0.4 0-0.1 0.1-0.3 0-0.2 0.1-0.3 0-0.2 0.1-0.3l6.6-16.3 0.7-1q0.1-0.2 0.2-0.3 0.1-0.1 0.3-0.2 0.1-0.1 0.3-0.2 0.1 0 0.3 0l1.6-0.3q0.4-0.1 0.7 0z"/>
	<path id="Layer" class="s5" d="m342.9 383l1 96-9-8 2.2-70.3 5.8-17.7z"/>
	<path id="Layer" class="s6" d="m298.4 490.4q1.3 0.7 2.3 1.8 0.9 1.1 1.4 2.5 0.5 1.4 0.4 2.8-0.1 1.5-0.7 2.8-0.6 1.2-1.5 2.1-0.9 0.9-2.1 1.4-1.1 0.6-2.4 0.7-1.3 0.2-2.5-0.1l-36.7 6.2 4-13.9 26.9-1.6q0.1-0.2 0.1-0.3 0.1-0.2 0.1-0.3 0.1-0.2 0.1-0.3 0.1-0.2 0.2-0.3 0.7-1.3 1.8-2.3 1.1-1 2.6-1.5 1.4-0.5 2.9-0.5 1.5 0.1 2.9 0.8 0.1 0 0.2 0z"/>
	<path id="Layer" class="s5" d="m242.4 423.7q1.6 1.5 2.8 3.4 1.1 1.9 1.5 4.1 0.4 2.2 0.1 4.4l-7.6 58.2c0 0 12-1.8 14.6 1 2.6 2.8 4.4 1.6 5-4.7 0.6-6.3 1 0.7 4.4 2.9 3.5 2.3 0 0 2.9-1.3 2.9-1.3 14.7 3.1 14.7 3.1l-0.3 15c0 0-7.2 2.6-8.8 3-1.6 0.5-1.9 0.2-2 1.6 0 1.4-2.8 0-3.4-3.6-0.6-3.5 0 0-6.5 4.8-6.5 4.8-45.2-2.7-45.2-2.7l-1.4-52.4 7.4-29.9c0.5-1.9 1.3-3.6 2.5-5.1 1.2-1.5 2.7-2.7 4.4-3.6 1.7-0.9 3.6-1.4 5.5-1.4 2-0.1 3.9 0.2 5.7 0.9q2 0.9 3.7 2.3z"/>
	<path id="Layer" class="s8" d="m0.1 594.7q0.1-0.2 0.2-0.4 0.2-0.2 0.4-0.3 0.3-0.1 0.5-0.1h715.3c0.3 0 0.6 0.2 0.8 0.4 0.2 0.2 0.4 0.5 0.4 0.8 0 0.4-0.2 0.7-0.4 0.9-0.2 0.2-0.5 0.3-0.8 0.3h-715.3q-0.2 0-0.5-0.1-0.2-0.1-0.4-0.2-0.1-0.2-0.2-0.4-0.1-0.2-0.1-0.5 0-0.2 0.1-0.4z"/>
	<path id="Layer" class="s4" d="m631.2 337.6h-202.7c-1.6 0-3.2-0.3-4.7-0.9-1.5-0.7-2.9-1.6-4-2.7-1.2-1.2-2.1-2.5-2.7-4-0.6-1.5-1-3.2-1-4.8v-27.3c0-1.6 0.4-3.2 1-4.7 0.6-1.5 1.5-2.9 2.7-4.1 1.1-1.1 2.5-2 4-2.6 1.5-0.7 3.1-1 4.7-1h202.7c1.6 0 3.2 0.3 4.7 1 1.5 0.6 2.9 1.5 4 2.6 1.2 1.2 2.1 2.6 2.7 4.1 0.7 1.5 1 3.1 1 4.7v27.3c0 1.6-0.3 3.3-1 4.8-0.6 1.5-1.5 2.8-2.7 4-1.1 1.1-2.5 2-4 2.7-1.5 0.6-3.1 0.9-4.7 0.9z"/>
	<path id="Layer" class="s2" d="m554.5 306.9h-59.7c-0.7 0-1.4-0.3-1.9-0.8-0.5-0.5-0.8-1.2-0.8-1.9 0-0.7 0.3-1.4 0.8-1.9 0.5-0.5 1.2-0.8 1.9-0.8h59.7c0.7 0 1.4 0.3 1.9 0.8 0.5 0.5 0.7 1.2 0.7 1.9 0 0.7-0.2 1.4-0.7 1.9-0.5 0.5-1.2 0.8-1.9 0.8z"/>
	<path id="Layer" class="s2" d="m611.9 321.6h-117.8c-0.7 0-1.4-0.3-1.9-0.8-0.5-0.5-0.8-1.2-0.8-1.9 0-0.7 0.3-1.4 0.8-1.9 0.5-0.5 1.2-0.8 1.9-0.8h117.8c0.7 0 1.4 0.3 1.9 0.8 0.5 0.5 0.8 1.2 0.8 1.9 0 0.7-0.3 1.4-0.8 1.9-0.5 0.5-1.2 0.8-1.9 0.8z"/>
	<circle id="Layer" class="s2" cx="463" cy="311.6" r="17.9"/>
	<path id="Layer" class="s4" d="m566.2 407.6h-202.7c-1.6 0-3.2-0.3-4.7-0.9-1.5-0.7-2.9-1.6-4-2.7-1.2-1.2-2.1-2.5-2.7-4-0.6-1.5-1-3.2-1-4.8v-27.3c0-1.6 0.4-3.2 1-4.7 0.6-1.5 1.5-2.9 2.7-4.1 1.1-1.1 2.5-2 4-2.6 1.5-0.7 3.1-1 4.7-1h202.7c1.6 0 3.2 0.3 4.7 1 1.5 0.6 2.9 1.5 4 2.6 1.2 1.2 2.1 2.6 2.7 4.1 0.7 1.5 1 3.1 1 4.7v27.3c0 1.6-0.3 3.3-1 4.8-0.6 1.5-1.5 2.8-2.7 4-1.1 1.1-2.5 2-4 2.7-1.5 0.6-3.1 0.9-4.7 0.9z"/>
	<path id="Layer" class="s2" d="m489.5 376.9h-59.7c-0.7 0-1.4-0.3-1.9-0.8-0.5-0.5-0.8-1.2-0.8-1.9 0-0.7 0.3-1.4 0.8-1.9 0.5-0.5 1.2-0.8 1.9-0.8h59.7c0.7 0 1.4 0.3 1.9 0.8 0.5 0.5 0.7 1.2 0.7 1.9 0 0.7-0.2 1.4-0.7 1.9-0.5 0.5-1.2 0.8-1.9 0.8z"/>
	<path id="Layer" class="s2" d="m546.9 391.6h-117.8c-0.7 0-1.4-0.3-1.9-0.8-0.5-0.5-0.8-1.2-0.8-1.9 0-0.7 0.3-1.4 0.8-1.9 0.5-0.5 1.2-0.8 1.9-0.8h117.8c0.7 0 1.4 0.3 1.9 0.8 0.5 0.5 0.8 1.2 0.8 1.9 0 0.7-0.3 1.4-0.8 1.9-0.5 0.5-1.2 0.8-1.9 0.8z"/>
	<circle id="Layer" class="s2" cx="398" cy="381.6" r="17.9"/>
</svg>